<svg width="48" height="48" viewBox="0 0 48 48" fill="none" xmlns="http://www.w3.org/2000/svg">
<path fill-rule="evenodd" clip-rule="evenodd" d="M33.8127 21.0641C33.8127 21.0641 33.997 22 34.0599 22.009C37.4537 22.4929 40 24.4725 40 28C40 31.866 36.866 35 33 35H15C11.134 35 8 31.866 8 28C8 24.4725 10.6092 21.5544 14.003 21.0705C14.0659 21.0615 14.1275 21.0596 14.1873 21.0641C15.0889 16.4677 19.1395 13 24 13C28.8605 13 32.9111 16.4677 33.8127 21.0641Z" fill="#F3F3F3"/>
<path d="M33 35H33.4118C37.0503 35 40 32.1272 40 28.5833C40 25.3383 37.5268 22.6559 34.3161 22.2266C33.8697 17.0587 29.4215 13 24 13C19.2043 13 15.1702 16.1758 13.9938 20.486C10.5718 21.1766 8 24.1291 8 27.6667C8 31.5434 11.0886 34.7175 15 34.9822" stroke="#231815" stroke-width="2" stroke-linecap="round" stroke-linejoin="round"/>
<path d="M24.1486 32C24.6318 32 25.0236 32.3918 25.0236 32.875V33.9844L25.9845 33.4297C26.403 33.1881 26.9382 33.3315 27.1798 33.75C27.4214 34.1685 27.2779 34.7037 26.8595 34.9453L25.8976 35.499L26.8595 36.0547C27.2779 36.2963 27.4214 36.8315 27.1798 37.25C26.9382 37.6685 26.403 37.8119 25.9845 37.5703L25.0236 37.0146V38.125C25.0236 38.6082 24.6318 39 24.1486 39C23.6653 39 23.2736 38.6082 23.2736 38.125V37.0146L22.3126 37.5703C21.8941 37.8118 21.3589 37.6685 21.1173 37.25C20.8758 36.8315 21.0192 36.2963 21.4376 36.0547L22.3976 35.499L21.4376 34.9453C21.0192 34.7037 20.8758 34.1685 21.1173 33.75C21.3589 33.3315 21.8941 33.1882 22.3126 33.4297L23.2736 33.9844V32.875C23.2736 32.3918 23.6653 32 24.1486 32Z" fill="#231815"/>
</svg>
