<svg width="48" height="48" viewBox="0 0 48 48" fill="none" xmlns="http://www.w3.org/2000/svg">
<path fill-rule="evenodd" clip-rule="evenodd" d="M33.8127 21.0641C33.8127 21.0641 33.997 22 34.0599 22.009C37.4537 22.4929 40 24.4725 40 28C40 31.866 36.866 35 33 35H15C11.134 35 8 31.866 8 28C8 24.4725 10.6092 21.5544 14.003 21.0705C14.0659 21.0615 14.1275 21.0596 14.1873 21.0641C15.0889 16.4677 19.1395 13 24 13C28.8605 13 32.9111 16.4677 33.8127 21.0641Z" fill="#F3F3F3"/>
<path d="M33 35H33.4118C37.0503 35 40 32.1272 40 28.5833C40 25.3383 37.5268 22.6559 34.3161 22.2266C33.8697 17.0587 29.4215 13 24 13C19.2043 13 15.1702 16.1758 13.9938 20.486C10.5718 21.1766 8 24.1291 8 27.6667C8 31.5434 11.0886 34.7175 15 34.9822" stroke="#231815" stroke-width="2" stroke-linecap="round" stroke-linejoin="round"/>
<path d="M28 37C30.2091 37 32 38.7909 32 41V41.5C32 43.433 30.433 45 28.5 45C26.567 45 25 43.433 25 41.5V41C25 40.4477 25.4477 40 26 40C26.5523 40 27 40.4477 27 41V41.5C27 42.3284 27.6716 43 28.5 43C29.3284 43 30 42.3284 30 41.5V41C30 39.8954 29.1046 39 28 39H18C17.4477 39 17 38.5523 17 38C17 37.4477 17.4477 37 18 37H28ZM29 34C29.5523 34 30 34.4477 30 35C30 35.5523 29.5523 36 29 36H19C18.4477 36 18 35.5523 18 35C18 34.4477 18.4477 34 19 34H29ZM24 26C25.6569 26 27 27.3431 27 29V29.5C27 31.433 25.433 33 23.5 33H17C16.4477 33 16 32.5523 16 32C16 31.4477 16.4477 31 17 31H23.5C24.3284 31 25 30.3284 25 29.5V29C25 28.4477 24.5523 28 24 28C23.4477 28 23 28.4477 23 29V29.2725C23 29.8247 22.5523 30.2725 22 30.2725C21.4477 30.2725 21 29.8247 21 29.2725V29C21 27.3431 22.3431 26 24 26Z" fill="#231815"/>
</svg>
